# AST/ASF file generated using VICON BodyLanguage
# -----------------------------------------------
:version 1.10
:name VICON
:units
  mass 1.0
  length 0.45
  angle deg
:documentation
   .ast/.asf automatically generated from VICON data using
   VICON BodyBuilder and BodyLanguage model FoxedUp or BRILLIANT.MOD
:root
   order TX TY TZ RX RY RZ
   axis XYZ
   position 0 0 0  
   orientation 0 0 0 
:bonedata
  begin
     id 1 
     name lhipjoint
     direction 0.627457 -0.725269 0.283342 
     length 2.53237 
     axis 0 0 0  XYZ
  end
  begin
     id 2 
     name lfemur
     direction 0.34202 -0.939693 0  
     length 7.32496  
     axis 0 0 20  XYZ
    dof rx ry rz
    limits (-160.0 20.0)
           (-70.0 70.0)
           (-60.0 70.0)
  end
  begin
     id 3 
     name ltibia
     direction 0.34202 -0.939693 0   
     length 7.69674   
     axis 0 0 20   XYZ
    dof rx
    limits (-10.0 170.0)
  end
  begin
     id 4 
     name lfoot
     direction 0.127289 -0.349722 0.928166   
     length 1.8612   
     axis -90 7.62852e-016 20   XYZ
    dof rx rz
    limits (-45.0 90.0)
           (-70.0 20.0)
  end
  begin
     id 5 
     name ltoes
     direction 1.53561e-011 -4.21864e-011 1   
     length 0.925608   
     axis -90 7.62852e-016 20   XYZ
    dof rx
    limits (-90.0 20.0)
  end
  begin
     id 6 
     name rhipjoint
     direction -0.609094 -0.738725 0.288599   
     length 2.48624  
     axis 0 0 0  XYZ 
  end
  begin
     id 7 
     name rfemur
     direction -0.34202 -0.939693 0   
     length 7.44259   
     axis 0 0 -20   XYZ
    dof rx ry rz
    limits (-160.0 20.0)
           (-70.0 70.0)
           (-70.0 60.0)
  end
  begin
     id 8 
     name rtibia
     direction -0.34202 -0.939693 0   
     length 7.7781   
     axis 0 0 -20   XYZ
    dof rx
    limits (-10.0 170.0)
 end
 begin
     id 9 
     name rfoot
     direction -0.107015 -0.294021 0.949789   
     length 2.14741  
     axis -90 -7.62852e-016 -20   XYZ
    dof rx rz
    limits (-45.0 90.0)
           (-20.0 70.0)
  end
  begin
     id 10 
     name rtoes
     direction -1.53497e-011 -4.21924e-011 1   
     length 1.0706   
     axis -90 -7.62852e-016 -20   XYZ
    dof rx
    limits (-90.0 20.0)
  end
  begin
     id 11 
     name lowerback
     direction -0.0142066 0.998112 -0.0597545   
     length 1.86627   
     axis 0 0 0   XYZ
    dof rx ry rz
    limits (-20.0 45.0)
           (-30.0 30.0)
           (-30.0 30.0)
  end
  begin
     id 12 
     name upperback
     direction 0.00547294 0.999744 0.0219437   
     length 1.86272   
     axis 0 0 0   XYZ
    dof rx ry rz
    limits (-20.0 45.0)
           (-30.0 30.0)
           (-30.0 30.0)
  end
  begin
     id 13 
     name thorax
     direction 0.0116162 0.998704 0.0495538   
     length 1.8703   
     axis 0 0 0   XYZ
    dof rx ry rz
    limits (-20.0 45.0)
           (-30.0 30.0)
           (-30.0 30.0)
  end
  begin
     id 14 
     name lowerneck
     direction -0.0106574 0.998739 0.0490586   
     length 1.8074   
     axis 0 0 0   XYZ
    dof rx ry rz
    limits (-20.0 45.0)
           (-30.0 30.0)
           (-30.0 30.0)
  end
  begin
     id 15 
     name upperneck
     direction 0.030527 0.976587 -0.212944   
     length 1.80681   
     axis 0 0 0   XYZ
    dof rx ry rz
    limits (-20.0 45.0)
           (-30.0 30.0)
           (-30.0 30.0)
  end
  begin
     id 16
     name head
     direction 0.00869225 0.997035 -0.0764531  
     length 1.8313  
     axis 0 0 0   XYZ
    dof rx ry rz
    limits (-20.0 45.0)
           (-30.0 30.0)
           (-30.0 30.0)
  end
  begin
     id 17 
     name lclavicle
     direction 0.915958 0.399447 0.0382386  
     length 3.78965  
     axis 0 0 0   XYZ
    dof ry rz
    limits (-20.0 10.0)
           (0.0 20.0)
  end
  begin
     id 18 
     name lhumerus
     direction 1 -4.48967e-011 3.19303e-027   
     length 4.78095   
     axis -180 -30 -90   XYZ
    dof rx ry rz
    limits (-60.0 90.0)
           (-90.0 90.0)
           (-90.0 90.0)
  end
  begin
     id 19
     name lradius
     direction 1 -4.48967e-011 -3.77974e-027   
     length 3.58615   
     axis -180 -30 -90   XYZ
    dof rx
    limits (-10.0 170.0)
  end
  begin
     id 20
     name lwrist
     direction 1 -4.48927e-011 1.2807e-027   
     length 1.79307   
     axis 1.91374e-015 90 90   XYZ
    dof ry
    limits (-180.0 0.0)
 end
  begin
     id 21 
     name lhand
     direction 1 -4.49036e-011 2.5614e-027   
     length 0.659812   
     axis -1.63439e-015 90 90   XYZ
    dof rx rz
    limits (-90.0 90.0)
           (-45.0 45.0)
  end
  begin
     id 22 
     name lfingers
     direction 1 -4.49052e-011 5.1228e-027   
     length 0.531957   
     axis -3.26879e-015 90 90   XYZ
    dof rx
    limits (0.0 90.0)
  end
  begin
     id 23
     name lthumb
     direction 0.707107 -6.35012e-011 0.707107   
     length 0.763787   
     axis -90 45 2.85299e-015   XYZ
    dof rx rz
    limits (-45.0 45.0)
           (-45.0 45.0)
  end
  begin
     id 24 
     name rclavicle
     direction -0.895351 0.435135 0.0948887   
     length 3.70497  
     axis 0 0 0   XYZ 
    dof ry rz
    limits (-10.0 20.0)
           (-20.0 0.0)
  end
  begin
     id 25 
     name rhumerus
     direction -1 -4.48971e-011 2.38946e-027  
     length 4.48913   
     axis -180 30 90   XYZ
    dof rx ry rz
    limits (-90.0 60.0)
           (-90.0 90.0)
           (-90.0 90.0)
  end
  begin
     id 26 
     name rradius
     direction -1 -4.4895e-011 4.38668e-027   
     length 3.7051   
     axis -180 30 90   XYZ
    dof rx
    limits (-10.0 170.0)
  end
  begin
     id 27 
     name rwrist
     direction -1 -4.49007e-011 1.2807e-027   
     length 1.85255   
     axis 1.91374e-015 -90 -90   XYZ
    dof ry
    limits (-180.0 0.0)
  end
  begin
     id 28
     name rhand
     direction -1 -4.48851e-011 2.5614e-027   
     length 0.449136   
     axis -1.63439e-015 -90 -90   XYZ
    dof rx rz
    limits (-90.0 90.0)
           (-45.0 45.0)
  end
  begin
     id 29
     name rfingers
     direction -1 -4.49128e-011 5.1228e-027   
     length 0.362105   
     axis -3.26879e-015 -90 -90   XYZ
    dof rx
    limits (0.0 90.0)
  end
  begin
     id 30
     name rthumb
     direction -0.707107 -6.34851e-011 0.707107   
     length 0.519912   
     axis -90 -45 -2.85299e-015   XYZ
    dof rx rz
    limits (-45.0 45.0)
           (-45.0 45.0)
  end
:hierarchy
  begin
    root lhipjoint rhipjoint lowerback
    lhipjoint lfemur
    lfemur ltibia
    ltibia lfoot
    lfoot ltoes
    rhipjoint rfemur
    rfemur rtibia
    rtibia rfoot
    rfoot rtoes
    lowerback upperback
    upperback thorax
    thorax lowerneck lclavicle rclavicle
    lowerneck upperneck
    upperneck head
    lclavicle lhumerus
    lhumerus lradius
    lradius lwrist
    lwrist lhand lthumb
    lhand lfingers
    rclavicle rhumerus
    rhumerus rradius
    rradius rwrist
    rwrist rhand rthumb
    rhand rfingers
  end

#!OML:ASF I:\Actors\actors\Patient Classification 2\Patient 1\Session 1\actor1.ASF
:FULLY-SPECIFIED
:DEGREES
38
root -0.924273 18.14 5.67907 -0.470755 -2.75465 -3.87534
lowerback 2.79584 0.518923 1.49431
upperback -1.89609 0.784701 0.83411
thorax -3.5099 0.365143 -0.024791
lowerneck -12.1202 -1.91824 -1.43178
upperneck 22.0549 -3.2893 3.86092
head 8.9929 -1.25881 1.18253
rclavicle 6.72141e-015 2.78299e-015
rhumerus -51.2547 -6.78651 -83.9293
rradius 42.6362
rwrist 14.8966
rhand -7.75294 -25.6245
rfingers 7.12502
rthumb 18.1466 -54.798
lclavicle 6.72141e-015 2.78299e-015
lhumerus -44.1085 3.71793 89.0494
lradius 37.1522
lwrist -8.40286
lhand -3.20603 -26.8873
lfingers 7.12502
lthumb 22.5162 1.8199
rfemur 0 0 0
rtibia 0
rfoot 0 0
rtoes 0
lfemur 17.8082 -8.42326 -13.7383
ltibia -17.1675
lfoot -5.52088 21.4113
ltoes -7.10154
39
root -0.924471 18.1395 5.67973 -0.460416 -2.74965 -3.83867
lowerback 2.77006 0.514932 1.46017
upperback -1.90168 0.776811 0.815427
thorax -3.50133 0.361839 -0.024208
lowerneck -12.102 -1.89885 -1.39778
upperneck 22.0446 -3.26415 3.83957
head 8.98427 -1.2468 1.1725
rclavicle -1.14301e-014 3.97569e-015
rhumerus -51.2743 -6.84002 -83.9211
rradius 42.6354
rwrist 14.9696
rhand -7.73666 -25.5903
rfingers 7.12502
rthumb 18.1622 -54.7624
lclavicle -1.14301e-014 3.97569e-015
lhumerus -44.1127 3.71846 89.0351
lradius 37.1349
lwrist -8.40636
lhand -3.18602 -26.901
lfingers 7.12502
lthumb 22.5354 1.80385
rfemur 0 0 0
rtibia 0
rfoot 0 0
rtoes 0
lfemur 17.789 -8.51049 -13.7886
ltibia -17.15
lfoot -5.56347 21.4841
ltoes -6.99629
40
root -0.924761 18.1395 5.67999 -0.459362 -2.75375 -3.81732
lowerback 2.7774 0.509565 1.44037
upperback -1.9112 0.768573 0.799198
thorax -3.51541 0.357893 -0.0294528
lowerneck -12.0826 -1.89962 -1.42443
upperneck 22.0437 -3.27231 3.89365
head 8.982 -1.24743 1.19462
rclavicle 4.68386e-015 4.37326e-015
rhumerus -51.2804 -6.80929 -83.9537
rradius 42.645
rwrist 14.9549
rhand -7.70083 -25.6639
rfingers 7.12502
rthumb 18.1967 -54.8327
lclavicle 4.68386e-015 4.37326e-015
lhumerus -44.1305 3.72088 89.0092
lradius 37.1335
lwrist -8.39093
lhand -3.17926 -26.9121
lfingers 7.12502
lthumb 22.5419 1.79194
rfemur 0 0 0
rtibia 0
rfoot 0 0
rtoes 0
lfemur 17.7831 -8.53765 -13.8173
ltibia -17.1351
lfoot -5.59569 21.5208
ltoes -6.77766
41
root -0.925322 18.1402 5.68049 -0.471438 -2.76392 -3.82071
lowerback 2.79421 0.50979 1.43727
upperback -1.91273 0.769138 0.799589
thorax -3.52653 0.358181 -0.0275249
lowerneck -12.0825 -1.90006 -1.46955
upperneck 22.0516 -3.27538 3.94427
head 8.98646 -1.24719 1.21916
rclavicle -4.29872e-015 -4.17448e-015
rhumerus -51.2634 -6.7872 -83.9573
rradius 42.7738
rwrist 14.4871
rhand -7.2266 -26.11
rfingers 7.12502
rthumb 18.6529 -55.2357
lclavicle -4.29872e-015 -4.17448e-015
lhumerus -44.1458 3.73363 89.0005
lradius 37.1397
lwrist -8.38053
lhand -3.18098 -26.9028
lfingers 7.12502
lthumb 22.5403 1.80147
rfemur 0 0 0
rtibia 0
rfoot 0 0
rtoes 0
lfemur 17.7973 -8.50762 -13.8143
ltibia -17.1226
lfoot -5.58299 21.5024
ltoes -6.82977
42
root -0.925858 18.1401 5.68098 -0.479188 -2.77646 -3.841
lowerback 2.79952 0.511207 1.44004
upperback -1.90561 0.771607 0.813538
thorax -3.52232 0.359571 -0.0148851
lowerneck -12.0987 -1.89809 -1.50128
upperneck 22.058 -3.27088 3.96546
head 8.99239 -1.24517 1.23215
rclavicle 1.5207e-014 -5.36719e-015
rhumerus -51.2632 -6.85397 -83.9062
rradius 43.0438
rwrist 13.6782
rhand -6.34481 -26.8379
rfingers 7.12502
rthumb 19.5009 -55.88
lclavicle 1.5207e-014 -5.36719e-015
lhumerus -44.1337 3.77358 88.9987
lradius 37.1314
lwrist -8.39957
lhand -3.17725 -26.8744
lfingers 7.12502
lthumb 22.5438 1.82941
rfemur 0 0 0
rtibia 0
rfoot 0 0
rtoes 0
lfemur 17.8038 -8.44836 -13.7837
ltibia -17.1167
lfoot -5.55375 21.4563
ltoes -7.15471
43
root -0.926479 18.1392 5.68157 -0.480564 -2.78869 -3.84027
lowerback 2.8045 0.513115 1.4127
upperback -1.90262 0.773427 0.825864
thorax -3.52253 0.361311 0.0129691
lowerneck -12.1131 -1.91173 -1.54458
upperneck 22.0697 -3.28762 3.99346
head 9.00086 -1.25335 1.24702
rclavicle 6.65929e-015 -1.98785e-016
rhumerus -51.295 -6.93044 -83.8575
rradius 43.1888
rwrist 13.3467
rhand -5.99451 -27.1027
rfingers 7.12502
rthumb 19.8376 -56.1103
lclavicle 6.65929e-015 -1.98785e-016
lhumerus -44.1328 3.8114 89.0037
lradius 37.1326
lwrist -8.40828
lhand -3.1688 -26.8697
lfingers 7.12502
lthumb 22.552 1.83314
rfemur 0 0 0
rtibia 0
rfoot 0 0
rtoes 0
lfemur 17.8098 -8.46965 -13.7846
ltibia -17.1236
lfoot -5.57879 21.4818
ltoes -7.1174
44
root -0.926832 18.1388 5.6832 -0.484602 -2.80005 -3.81576
lowerback 2.80193 0.518175 1.38618
upperback -1.90116 0.778619 0.815748
thorax -3.5197 0.364433 0.0171476
lowerneck -12.1056 -1.92234 -1.53964
upperneck 22.0631 -3.29936 3.97661
head 8.99716 -1.26043 1.23913
rclavicle 2.04997e-015 -3.57812e-015
rhumerus -51.2932 -6.9358 -83.8602
rradius 43.1731
rwrist 13.3527
rhand -6.07693 -27.055
rfingers 7.12502
rthumb 19.7584 -56.0707
lclavicle 2.04997e-015 -3.57812e-015
lhumerus -44.1564 3.77427 89.0214
lradius 37.1656
lwrist -8.3628
lhand -3.1878 -26.8492
lfingers 7.12502
lthumb 22.5337 1.85588
rfemur 0 0 0
rtibia 0
rfoot 0 0
rtoes 0
lfemur 17.8278 -8.46129 -13.8142
ltibia -17.1315
lfoot -5.56276 21.4855
ltoes -6.9849
45
root -0.926962 18.1386 5.68488 -0.480988 -2.81735 -3.83021
lowerback 2.77973 0.516342 1.40322
upperback -1.89072 0.77615 0.811898
thorax -3.49611 0.362909 0.00405218
lowerneck -12.1105 -1.91885 -1.5032
upperneck 22.0527 -3.29557 3.94919
head 8.99332 -1.25861 1.22398
rclavicle -3.68994e-015 5.56597e-015
rhumerus -51.235 -6.88806 -83.8908
rradius 43.1379
rwrist 13.3092
rhand -6.06663 -27.1242
rfingers 7.12502
rthumb 19.7683 -56.139
lclavicle -3.68994e-015 5.56597e-015
lhumerus -44.1489 3.71981 89.0407
lradius 37.1902
lwrist -8.27347
lhand -3.21613 -26.7798
lfingers 7.12502
lthumb 22.5065 1.92861
rfemur 0 0 0
rtibia 0
rfoot 0 0
rtoes 0
lfemur 17.8401 -8.4639 -13.8049
ltibia -17.1304
lfoot -5.5756 21.5257
ltoes -6.95052
46
root -0.92716 18.1388 5.68543 -0.462971 -2.8145 -3.86998
lowerback 2.75694 0.50465 1.42479
upperback -1.89008 0.761367 0.824087
thorax -3.48262 0.355264 0.00558099
lowerneck -12.1344 -1.91314 -1.47605
upperneck 22.0799 -3.29234 3.93925
head 9.00644 -1.25529 1.21632
rclavicle -2.02512e-014 6.55989e-015
rhumerus -51.2108 -6.8549 -83.911
rradius 43.1282
rwrist 13.2991
rhand -6.03491 -27.1953
rfingers 7.12502
rthumb 19.7988 -56.2069
lclavicle -2.02512e-014 6.55989e-015
lhumerus -44.1235 3.74213 89.0302
lradius 37.1645
lwrist -8.27893
lhand -3.23812 -26.7817
lfingers 7.12502
lthumb 22.4854 1.92924
rfemur 0 0 0
rtibia 0
rfoot 0 0
rtoes 0
lfemur 17.8251 -8.56006 -13.7704
ltibia -17.1283
lfoot -5.66426 21.6136
ltoes -6.7491
47
root -0.927355 18.1392 5.68655 -0.452143 -2.80186 -3.88221
lowerback 2.73632 0.50446 1.42597
upperback -1.88966 0.760791 0.82652
thorax -3.47056 0.355055 0.00765691
lowerneck -12.1564 -1.91028 -1.45549
upperneck 22.1087 -3.28725 3.9111
head 9.0195 -1.25352 1.2038
rclavicle -1.82633e-015 1.15295e-014
rhumerus -51.2188 -6.90457 -83.9009
rradius 43.1158
rwrist 13.3324
rhand -6.08053 -27.1584
rfingers 7.12502
rthumb 19.7549 -56.1745
lclavicle -1.82633e-015 1.15295e-014
lhumerus -44.1197 3.73258 89.0319
lradius 37.1465
lwrist -8.33465
lhand -3.29292 -26.8547
lfingers 7.12502
lthumb 22.4328 1.86253
rfemur 0 0 0
rtibia 0
rfoot 0 0
rtoes 0
lfemur 17.8113 -8.6118 -13.7588
ltibia -17.1223
lfoot -5.70847 21.6303
ltoes -6.52884
48
root -0.926642 18.139 5.68849 -0.444443 -2.79641 -3.8596
lowerback 2.71681 0.511834 1.42076
upperback -1.88557 0.769454 0.811695
thorax -3.45508 0.359411 -0.00495342
lowerneck -12.1928 -1.91997 -1.46379
upperneck 22.1384 -3.29775 3.90145
head 9.03684 -1.25929 1.20056
rclavicle 2.00027e-015 -1.33186e-014
rhumerus -51.2225 -6.99277 -83.8811
rradius 43.0785
rwrist 13.4016
rhand -6.1299 -27.0578
rfingers 7.12502
rthumb 19.7075 -56.0788
lclavicle 2.00027e-015 -1.33186e-014
lhumerus -44.1275 3.66529 89.0635
lradius 37.1648
lwrist -8.30207
lhand -3.33648 -26.8721
lfingers 7.12502
lthumb 22.391 1.85024
rfemur 0 0 0
rtibia 0
rfoot 0 0
rtoes 0
lfemur 17.7985 -8.61894 -13.7873
ltibia -17.1044
lfoot -5.71336 21.6174
ltoes -6.58234
49
root -0.926482 18.139 5.69009 -0.436363 -2.79294 -3.84036
lowerback 2.72481 0.510427 1.41308
upperback -1.90111 0.767288 0.799972
thorax -3.47561 0.358198 -0.0127351
lowerneck -12.1925 -1.92333 -1.50979
upperneck 22.1617 -3.30752 3.96109
head 9.04695 -1.26111 1.22765
rclavicle -1.08338e-014 6.16232e-015
rhumerus -51.2295 -6.97798 -83.8923
rradius 43.0535
rwrist 13.364
rhand -6.12391 -27.0295
rfingers 7.12502
rthumb 19.7132 -56.05
lclavicle -1.08338e-014 6.16232e-015
lhumerus -44.1495 3.67942 89.0569
lradius 37.1692
lwrist -8.29963
lhand -3.33753 -26.8632
lfingers 7.12502
lthumb 22.39 1.85922
rfemur 0 0 0
rtibia 0
rfoot 0 0
rtoes 0
lfemur 17.7771 -8.576 -13.7998
ltibia -17.0822
lfoot -5.7135 21.568
ltoes -6.60856
